<svg width="31" height="31" viewBox="0 0 31 31" fill="none" xmlns="http://www.w3.org/2000/svg">
<circle cx="15.5" cy="15.5" r="15" stroke="#D2AC46"/>
<path d="M24.3121 14.0752C20.6495 8.62601 13.4352 7.32294 8.32967 11.3506C6.9978 12.4168 5.88791 13.8383 5 15.3783C5.22198 15.8521 5.55495 16.326 5.88791 16.7998C9.55055 22.249 16.5429 23.4336 21.6484 19.6429C22.6473 18.8136 23.5352 17.9844 24.3121 16.7998C24.6451 16.326 24.867 15.8521 25.2 15.3783C24.867 14.9044 24.6451 14.4306 24.3121 14.0752V14.0752ZM15.211 11.3506C15.7659 10.7583 16.6538 10.7583 17.2088 11.3506C17.7637 11.9429 17.7637 12.8906 17.2088 13.4829C16.6538 14.0752 15.7659 14.0752 15.211 13.4829C14.656 12.8906 14.656 11.9429 15.211 11.3506ZM15.1 20.4721C11.6593 20.4721 8.44066 18.5767 6.55385 15.4967C7.88571 13.4829 9.66154 12.0614 11.7703 11.3506C10.9934 12.2983 10.6604 13.3644 10.6604 14.5491C10.6604 17.1552 12.5473 19.4059 15.1 19.4059C17.5418 19.4059 19.6506 17.3921 19.6506 14.6675V14.5491C19.6506 13.3644 19.2066 12.1798 18.4297 11.3506C20.5385 12.0614 22.3143 13.4829 23.6462 15.4967C21.7593 18.5767 18.5407 20.4721 15.1 20.4721V20.4721Z" fill="#D2AC46"/>
</svg>
