<svg width="22" height="17" viewBox="0 0 22 17" fill="none" xmlns="http://www.w3.org/2000/svg">
<path d="M22 2C21.1902 2.35 20.3174 2.58 19.413 2.69C20.3384 2.16 21.0535 1.32 21.3901 0.31C20.5172 0.81 19.5497 1.16 18.5296 1.36C17.6989 0.5 16.5316 0 15.2065 0C12.7352 0 10.7161 1.92 10.7161 4.29C10.7161 4.63 10.7581 4.96 10.8317 5.27C7.08795 5.09 3.7543 3.38 1.53537 0.79C1.14627 1.42 0.92543 2.16 0.92543 2.94C0.92543 4.43 1.71415 5.75 2.93403 6.5C2.18738 6.5 1.49331 6.3 0.883365 6V6.03C0.883365 8.11 2.43977 9.85 4.50096 10.24C3.8392 10.4122 3.14446 10.4362 2.47132 10.31C2.75695 11.1625 3.31634 11.9084 4.07086 12.4429C4.82538 12.9775 5.73709 13.2737 6.67782 13.29C5.08317 14.4904 3.1065 15.1393 1.07266 15.13C0.715105 15.13 0.357553 15.11 0 15.07C1.99809 16.29 4.37476 17 6.91969 17C15.2065 17 19.76 10.46 19.76 4.79C19.76 4.6 19.76 4.42 19.7495 4.23C20.6329 3.63 21.3901 2.87 22 2Z" fill="#343434"/>
</svg>
