<svg width="19" height="18" viewBox="0 0 19 18" fill="none" xmlns="http://www.w3.org/2000/svg">
<path d="M9.53819 5.36125e-05C4.32513 5.36125e-05 0.0763821 4.00504 0.0763821 8.91903C0.0763821 10.494 0.515578 12.024 1.33668 13.374L0 18L5.01256 16.758C6.39698 17.469 7.95327 17.847 9.53819 17.847C14.7513 17.847 19 13.842 19 8.92803C19 6.54303 18.0166 4.30204 16.2312 2.61905C15.3558 1.78558 14.3132 1.12475 13.1641 0.675098C12.015 0.225444 10.7824 -0.00403209 9.53819 5.36125e-05ZM9.54774 1.50305C11.6482 1.50305 13.6151 2.27705 15.1045 3.68104C15.8355 4.36986 16.415 5.18792 16.8099 6.08832C17.2048 6.98872 17.4072 7.95373 17.4055 8.92803C17.4055 13.014 13.8729 16.335 9.53819 16.335C8.12512 16.335 6.7407 15.984 5.53769 15.3L5.25126 15.147L2.27236 15.885L3.06482 13.149L2.87387 12.861C2.08517 11.6808 1.668 10.3139 1.67085 8.91903C1.6804 4.83304 5.20352 1.50305 9.54774 1.50305ZM6.18693 4.79704C6.03417 4.79704 5.77638 4.85104 5.55678 5.07604C5.34673 5.30104 4.72613 5.85004 4.72613 6.93903C4.72613 8.03703 5.57588 9.09003 5.6809 9.24303C5.81457 9.39603 7.36131 11.646 9.73869 12.6C10.302 12.843 10.7412 12.978 11.0849 13.077C11.6482 13.248 12.1638 13.221 12.5744 13.167C13.0327 13.104 13.9683 12.627 14.1688 12.105C14.3693 11.583 14.3693 11.142 14.3121 11.043C14.2452 10.953 14.0925 10.899 13.8538 10.8C13.6151 10.674 12.4502 10.134 12.2402 10.062C12.0206 9.99002 11.8869 9.95402 11.7055 10.17C11.5528 10.395 11.0945 10.899 10.9608 11.043C10.8176 11.196 10.6839 11.214 10.4548 11.106C10.2065 10.989 9.44271 10.755 8.54523 9.99902C7.83869 9.40503 7.37085 8.67603 7.22764 8.45103C7.11306 8.23503 7.21809 8.10003 7.33266 8.00103C7.43769 7.90203 7.59045 7.74003 7.68593 7.60503C7.81005 7.47903 7.84824 7.38003 7.92462 7.23603C8.001 7.08303 7.96281 6.95703 7.90553 6.84903C7.84824 6.75003 7.37085 5.63404 7.17035 5.19304C6.9794 4.76104 6.78844 4.81504 6.63568 4.80604C6.50201 4.80604 6.34925 4.79704 6.18693 4.79704Z" fill="#343434"/>
</svg>
