<svg width="20" height="14" viewBox="0 0 20 14" fill="none" xmlns="http://www.w3.org/2000/svg">
<path d="M19.5843 11.8132C19.3554 12.6748 18.6777 13.3509 17.8163 13.5812C16.256 14 10.003 14 10.003 14C10.003 14 3.74699 14 2.18976 13.5812C1.32831 13.3509 0.650602 12.6748 0.421687 11.8132C0 10.2547 0 7 0 7C0 7 -1.72351e-07 3.7453 0.418675 2.18675C0.64759 1.32521 1.3253 0.649145 2.18675 0.418803C3.74699 0 10 0 10 0C10 0 16.256 0 17.8133 0.418803C18.6747 0.649145 19.3524 1.32521 19.5813 2.18675C20 3.7453 20 7 20 7C20 7 20 10.2547 19.5843 11.8132ZM7.95482 4.04744V9.95256L13.1807 7L7.95482 4.04744Z" fill="#343434"/>
</svg>
