
    <svg
      width="29"
      height="27"
      viewBox="0 0 29 27"
      fill="none"
      xmlns="http://www.w3.org/2000/svg"
    >
      <rect
        width="28.3171"
        height="27"
        rx="5"
        fill="#CBCBCB"
        fill-opacity="0.18"
      />
      <path
        fillRule="evenodd"
        clipRule="evenodd"
        d="M15.0873 5.15751L20.8339 8.03081C21.6241 8.38997 22.0551 9.10829 22.0551 9.89845V16.7225C22.0551 17.5845 21.5522 18.3028 20.8339 18.662L15.0873 21.5353C14.8 21.6789 14.5127 21.7508 14.1535 21.7508C13.8662 21.7508 13.507 21.6789 13.2197 21.5353L7.4731 18.662C6.68295 18.3028 6.25195 17.5127 6.25195 16.7225V9.89845C6.25195 9.10829 6.68295 8.38997 7.40127 8.03081L13.1479 5.15751C13.7943 4.87018 14.5127 4.87018 15.0873 5.15751ZM14.1535 6.30683C14.0817 6.30683 13.938 6.30683 13.8662 6.37866L8.5506 9.03646L14.1535 11.8379L19.7564 9.03646L14.4409 6.37866C14.369 6.30683 14.2972 6.30683 14.1535 6.30683ZM8.04776 17.4408C7.83226 17.2972 7.6886 17.0099 7.6886 16.7944V10.1858L13.4352 13.0591V20.0986L8.04776 17.4408ZM14.8718 20.0986L20.1874 17.4408C20.4748 17.2972 20.6184 17.0817 20.6184 16.7944V10.1858L14.8718 13.0591V20.0986Z"
        fill="black"
      />
      <mask
        id="mask0_1753_9819"
        style="mask-type:alpha"
        maskUnits="userSpaceOnUse"
        x="6"
        y="4"
        width="17"
        height="18"
      >
        <path
          fillRule="evenodd"
          clipRule="evenodd"
          d="M15.0873 5.15751L20.8339 8.03081C21.6241 8.38997 22.0551 9.10829 22.0551 9.89845V16.7225C22.0551 17.5845 21.5522 18.3028 20.8339 18.662L15.0873 21.5353C14.8 21.6789 14.5127 21.7508 14.1535 21.7508C13.8662 21.7508 13.507 21.6789 13.2197 21.5353L7.4731 18.662C6.68295 18.3028 6.25195 17.5127 6.25195 16.7225V9.89845C6.25195 9.10829 6.68295 8.38997 7.40127 8.03081L13.1479 5.15751C13.7943 4.87018 14.5127 4.87018 15.0873 5.15751ZM14.1535 6.30683C14.0817 6.30683 13.938 6.30683 13.8662 6.37866L8.5506 9.03646L14.1535 11.8379L19.7564 9.03646L14.4409 6.37866C14.369 6.30683 14.2972 6.30683 14.1535 6.30683ZM8.04776 17.4408C7.83226 17.2972 7.6886 17.0099 7.6886 16.7944V10.1858L13.4352 13.0591V20.0986L8.04776 17.4408ZM14.8718 20.0986L20.1874 17.4408C20.4748 17.2972 20.6184 17.0817 20.6184 16.7944V10.1858L14.8718 13.0591V20.0986Z"
          fill="white"
        />
      </mask>
      <g mask="url(#mask0_1753_9819)">
        <rect
          x="5.5332"
          y="4.72656"
          width="17.2398"
          height="17.2398"
          fill="#131313"
          fill-opacity="0.98"
        />
      </g>
    </svg>
